/* XPM */
static char *d872808c6c9b45beb76fc35d4a1ca9875ubO1TETr6yOsXYf[] = {
/* columns rows colors chars-per-pixel */
"40 40 164 2 ",
"   c #272725",
".  c #282727",
"X  c #352D31",
"o  c #373134",
"O  c #3D353A",
"+  c #403C3E",
"@  c #007A1D",
"#  c #39433C",
"$  c #433D41",
"%  c #3E4B42",
"&  c #396A4C",
"*  c #30734B",
"=  c #3E7053",
"-  c #464345",
";  c #484247",
":  c #474A47",
">  c #4C464B",
",  c #4B4C4C",
"<  c #504A4E",
"1  c #534D51",
"2  c #545354",
"3  c #575358",
"4  c #5A555B",
"5  c #5A5A5C",
"6  c #556159",
"7  c #487458",
"8  c #5F5D61",
"9  c #625E64",
"0  c #5C6463",
"q  c #4E7760",
"w  c #527960",
"e  c #656266",
"r  c #6A656C",
"t  c #6D696F",
"y  c #67706C",
"u  c #6F6970",
"i  c #706C73",
"p  c #737177",
"a  c #75737A",
"s  c #7A767B",
"d  c #7D7A7F",
"f  c #F4462F",
"g  c #F54731",
"h  c #FA513D",
"j  c #ED5947",
"k  c #FF5D4D",
"l  c #EE6A5E",
"z  c #FE6456",
"x  c #FF695C",
"c  c #D16B63",
"v  c #C37C79",
"b  c #FF756C",
"n  c #FF7A73",
"m  c #008500",
"M  c #008800",
"N  c #009700",
"B  c #009A00",
"V  c #00A500",
"C  c #00A901",
"Z  c #00B300",
"A  c #00BC00",
"S  c #008F32",
"D  c #00B82E",
"F  c #00AF30",
"G  c #00AC3F",
"H  c #00B335",
"J  c #00B63A",
"K  c #00B83D",
"L  c #00C000",
"P  c #00C71B",
"I  c #00C92C",
"U  c #00CA35",
"Y  c #00CB38",
"T  c #3E8358",
"R  c #00AF47",
"E  c #00A85C",
"W  c #529269",
"Q  c #648E72",
"!  c #669778",
"~  c #59AD7A",
"^  c #66A57E",
"/  c #F9B633",
"(  c #EEBB56",
")  c #FD916E",
"_  c #FF8374",
"`  c #FE817C",
"'  c #DAB17D",
"]  c #7F7B81",
"[  c #817D83",
"{  c #7D9C87",
"}  c #6FA886",
"|  c #77B699",
" . c #76C99D",
".. c #868286",
"X. c #888286",
"o. c #86838D",
"O. c #89868A",
"+. c #8D898E",
"@. c #908A8E",
"#. c #8A8791",
"$. c #8E8B94",
"%. c #918D94",
"&. c #928E98",
"*. c #969197",
"=. c #96929C",
"-. c #98949E",
";. c #9E999D",
":. c #A6878A",
">. c #AF9492",
",. c #86AC95",
"<. c #9DA79F",
"1. c #88B49C",
"2. c #9797A1",
"3. c #9B97A2",
"4. c #9D9AA5",
"5. c #A19CA6",
"6. c #A19EA9",
"7. c #94B1A5",
"8. c #A5A8A7",
"9. c #A4A2AD",
"0. c #A9A5AD",
"q. c #A6B0AE",
"w. c #A7A5B1",
"e. c #A8A7B1",
"r. c #ABAAB4",
"t. c #AEADBA",
"y. c #B2AEB1",
"u. c #B1AFBA",
"i. c #ACB6B4",
"p. c #B4B2B7",
"a. c #B3B1BD",
"s. c #F78282",
"d. c #FF8785",
"f. c #C3A7AE",
"g. c #E0A5A8",
"h. c #8BC7AB",
"j. c #93CBAF",
"k. c #9FC1BA",
"l. c #A0C1BB",
"z. c #A9C5BA",
"x. c #B6B4C0",
"c. c #B9B7C4",
"v. c #B6BBC7",
"b. c #BCBAC4",
"n. c #BBB9CA",
"m. c #C1BFCF",
"M. c #DBB9C3",
"N. c #C2BFD1",
"B. c #AFC6C1",
"V. c #BDC8C7",
"C. c #C4C1CF",
"Z. c #C3CBCA",
"A. c #C3C2D2",
"S. c #CBC3D3",
"D. c #CBC9D6",
"F. c #C5CBDC",
"G. c #CECCDA",
"H. c #D1CFDD",
"J. c #D9CBD8",
"K. c #C3D1D5",
"L. c #CAD2D3",
"P. c #D0D3D6",
"I. c #D2D2DE",
"U. c #D5D3E1",
/* pixels */
"L L L L L L L L L L L L L L L L L L L L L L L L L L L L L L L L L L L L L L L L ",
"L L L L L L L L L L L L L L L L L L L L L L L L L L L L L A L L L L L L L L L L ",
"L L L L A Y Y A L L Y U L L I Y L L L I I L L P Y P L L Y U A A Z C Z L L L L L ",
"A L L L L Z.F.E C E F.V.V C B.F. .C R / ( F C j.F.h.V J L.L.G C  .G. .A L A L L ",
"L L L L L L.U.t.V.I.D.C.9.F.G.U.v.x.I.' ) _ ` g.J.b.u.D.D.D.q.Z.P.H. .A L L L L ",
"L L L L L ,.8.e.m.S.0.0.0.H.a.6.9.n.G.+.s.` b x z l j M.0.0.w.S.m.8.~ A L L L A ",
"L L L L L B.A.e.*.*.@.@.%.&.$.@.+.*.*.s s.` b x k h f :.@.@.%.*.a.N.1.V V V V A ",
"L L L L L K.U.r.[ o.-.%.=.=.-.$.-.-.=.] s.` b x k h f :.%.-.-.=.n.U.z.B B B B A ",
"L A L L L B.A.0.=.4.n.r.c.n.n.r.c.n.n.-.s.d.n x k h g f.t.v.n.n.m.S.1.B B B B A ",
"L L L L L <.8.$.o.$.e.4.w.9.w.3.e.e.e.:.>.r.r.>.v c v 0.4.e.e.w.9.8.! B B B B A ",
"L L L L L K.U.t.&.2.a.w.x.x.x.9.a.a.x.&.4.x.x.u.9.a.a.a.9.x.x.a.S.U.k.B B B B A ",
"L L L L L K.U.t.$.-.t.9.w.x.x.9.t.t.u.$.3.u.u.t.9.u.u.t.9.t.a.t.A.U.l.B B B B A ",
"L L L L L 8.y.+.] #.6.=.6.6.4.&.9.w.x.=.4.e.2.4.=.6.6.6.=.6.9.6.y.p.^ B B B B A ",
"L L L L L z.b.4.#.=.t.6.w.x.x.6.r.x.U.9.=.t.&.4.5.u.r.r.4.t.t.r.a.b.,.B B B B A ",
"L L L L L K.U.w.] [ 9.=.3.4.4.&.4.e.I.a.x.H.$.&.&.4.4.4.&.4.4.4.n.U.z.B B B B A ",
"L L A L L V.P.9.{ [ w.4.9.w.9.3.9.a.U.U.U.U.&.3.3.w.w.w.3.0.w.9.b.G.7.B B B B A ",
"L L L L L 8.8.#.[ $.9.-.9.9.9.-.9.6.;.;.;.5.[ 3.3.6.6.6.3.9.9.9.0.0.! B B B B A ",
"L L L L L K.U.9.] [ =.$.=.-.=.#.=.2.3.&.3.3.=.&.#.3.-.-.$.=.=.=.c.U.l.B B B B A ",
"L L L L L K.U.e.] o.4.&.4.6.6.=.5.5.4.=.5.5.5.5.&.5.5.5.&.5.5.5.m.U.z.B B B B A ",
"L L L L L q.p.O.p ] &.o.&.&.%.o.&.&.&.o.&.&.&.&.o.&.&.&.#.&.&.&.8.p.} B B B B A ",
"L L L L L i.a.*.] &.x.x.3.3.a.a.r.4.6.u.x.5.3.u.u.u.3.5.u.x.6.3.e.a.} B B B B A ",
"L L L L L K.U.a.2.x.U.F.9.a.G.U.n.e.n.I.U.0.u.H.U.N.e.c.U.U.e.u.D.U.| B B B B A ",
"L L L L L V.H.x.N.U.G.S.w.I.G.G.c.n.U.H.G.e.H.H.G.n.a.U.G.G.t.S.I.G.| B B B B A ",
"L L L L L { ;.5.c.n.;.4.0.D.0.;.5.x.N.;.;.6.N.r.;.5.a.S.5.;.6.N.y.;.W B B B B A ",
"L L L L L Q O...X.X.X.....X.O...X.O.O.O.X.X.X.X.......O.......X.X.X.T B B B B A ",
"L L L L L w i t i i u i i u i u u u t u i i i i i i i i t i i i i i * B B B B A ",
"L L L L L S y i i i i i i i i u u u u u i i i i i i i t i t i i r 9 @ B B B B A ",
"L L L L L A Q +.O.O.O.X.O.O.O.O.O.O.O.O.O.O.O.O.O.O.O.O.O.O.O.O.a 0 B B B B B A ",
"A L L L L A ! %.@.O.O.@.O.O.O.O.O.O.+.O.O.O.O.O.@.O.O.O.O.O.O.O.a 0 B B B B B A ",
"L L L L L A Q [ d d d d d [ d [ +.$.$.$.%.&.%.#.d ] ] d ] ] ] ] t 6 B B B B B A ",
"L L L L A A w s 9 < 3 i i 1 , r 4.x.x.x.a.a.a.9.u < < u i 4 < 8 e 2 N B B B B A ",
"L L L L L A q i > X X r 4 X X , ] +.+.+.@.O.@.X.5 X X 3 r O X + 4 : N B B B B A ",
"L L L L L A 7 r ; o o 9 3 o o > 5 3 1 1 1 1 3 8 3 X o 1 9 O o $ 3 % N B B B C A ",
"L L L L A A 7 r ] 4.3.8 t =.6.s 3 + X X X X + 2 r =.5.a 0 O.6.o.3 % N B B C L L ",
"L L L L L A = e 5 5 5 5 5 5 5 5 5 - X X X X $ 4 5 5 4 4 5 5 5 5 , % N B C L L L ",
"L L L L L A & 8 2 2 2 2 2 2 2 2 2 - X X X X + 3 2 2 2 2 2 2 2 2 - # N C A L L L ",
"A L L L L A & 5 : : : : : : : : : o   . .   o : : : : : , , , , # # V A L L L L ",
"L L L L L A D K J J J K J J J J J H H F F F H J J K J J M M m m m m A L L L L L ",
"L L L L L L L A L L A L L L L L L L L L L L L L L L L L L L L L A L L L L L L L ",
"L L L L L L L L L L L L L L L L L L L L L L L L L L L L L L L L L L L L L L L L "
};
