/* XPM */
static char *_a1c944f3e0849e5c67111e22b33db41sqxeJ4b2XK6eT6JE[] = {
/* columns rows colors chars-per-pixel */
"40 40 16 1 ",
"  c #111111",
". c #03232D",
"X c #7A0711",
"o c #772C19",
"O c #432C2C",
"+ c #002350",
"@ c #1F2C6A",
"# c #464646",
"$ c #E00711",
"% c #FF3503",
"& c #F3793A",
"* c #00C000",
"= c #FFB17E",
"- c #78238C",
"; c #FF4694",
": c #F8F8F8",
/* pixels */
"****************************************",
"*********************XX*****************",
"********************X$%X****************",
"*****************..X$$%%X***************",
"***************..@@X$$%%X.**************",
"**************.@@@@ X$%$X@.*************",
"************..@...@ XX$$X@ *************",
"************ @@@.... X$ ..@ ************",
"************* @@@@  :  : .. ************",
"************ @@   &: && :  *************",
"************* @o=o=:@==@:o**************",
"*************.@o&=&=====&o**************",
"************.@@@o o&=$$=o  *************",
"***********.@@ @@@ o&==& . *************",
"************  @@@--  oo - **************",
"************* @@-;;-++$+;-**************",
"************ ..+;;-+;X%$+;-*************",
"*********** ..+---+;;;X;;++*************",
"************ .   +;;;;;;;++*************",
"************* o==o-;;;-;-+**************",
"************  ## +---+--+ **************",
"************* ## -+++-++ # *************",
"************* O# ---  -+ # *************",
"************* O# -;+#O -+# *************",
"************** O# ;+OO ;+# *************",
"************** O# ;+O  ;-+# ************",
"************** OO +==  ;;+O ************",
"**************+   +=&  -;+  ************",
"**************+--;+&oo& ;;+*************",
"**************+-;+=o o& ;;+*************",
"**************+-;+&o && ;;+*************",
"*************+--;+o  &o -;+*************",
"*************+--+=o+ &  -;+*************",
"*************+-+ # + #  -+**************",
"************ ++ ## + #  -+**************",
"************ +  # ++ O   ***************",
"************   O#    OO ****************",
"**************  O# *  OO ***************",
"************** *   * *   ***************",
"****************************************"
};
