/* XPM */
static char *_acf302262a64504a845db796e9714c8gNH5D8iE8PTnxhTJ[] = {
/* columns rows colors chars-per-pixel */
"40 40 166 2 ",
"   c #423727",
".  c #443927",
"X  c #453B29",
"o  c #4B3D2D",
"O  c #453D33",
"+  c #4D3F33",
"@  c #4D3F39",
"#  c #503F33",
"$  c #005E02",
"%  c #005B0E",
"&  c #004D14",
"*  c #184917",
"=  c #005A14",
"-  c #005718",
";  c #095118",
":  c #0F5B1E",
">  c #2A471E",
",  c #2E4C1F",
"<  c #006203",
"1  c #006B00",
"2  c #00620F",
"3  c #006C0C",
"4  c #007301",
"5  c #007B01",
"6  c #00740E",
"7  c #00611B",
"8  c #006A1B",
"9  c #007411",
"0  c #007B12",
"q  c #00791A",
"w  c #2E4C21",
"e  c #3A4424",
"r  c #334B23",
"t  c #354628",
"y  c #3F432B",
"u  c #3D4C2A",
"i  c #2F5529",
"p  c #355B2B",
"a  c #007426",
"s  c #007B20",
"d  c #09722A",
"f  c #1D702E",
"g  c #286124",
"h  c #28712D",
"j  c #3F6633",
"k  c #3F6C35",
"l  c #2A7A32",
"z  c #327C37",
"x  c #3E7E3B",
"c  c #444326",
"v  c #4C4226",
"b  c #4B452A",
"n  c #47482C",
"m  c #544B2F",
"M  c #49542D",
"N  c #464033",
"B  c #4D4132",
"V  c #4E4D34",
"C  c #4E4239",
"Z  c #534334",
"A  c #5B4431",
"S  c #5F4934",
"D  c #554639",
"F  c #594739",
"G  c #564A3A",
"H  c #5C4C3C",
"J  c #435735",
"K  c #4B5232",
"L  c #415A31",
"P  c #475A39",
"I  c #575131",
"U  c #585334",
"Y  c #565639",
"T  c #5E513F",
"R  c #57593B",
"E  c #644D37",
"W  c #604F3F",
"Q  c #62533D",
"!  c #446534",
"~  c #416E36",
"^  c #476A3B",
"/  c #59663F",
"(  c #427538",
")  c #4B733D",
"_  c #5E5E47",
"`  c #604F40",
"'  c #635343",
"]  c #685646",
"[  c #655946",
"{  c #6A5A47",
"}  c #6A5748",
"|  c #6C5B49",
" . c #715F4D",
".. c #586E42",
"X. c #537543",
"o. c #5F7648",
"O. c #587C49",
"+. c #636746",
"@. c #73624E",
"#. c #756A49",
"$. c #796A4B",
"%. c #627D4A",
"&. c #73734F",
"*. c #766351",
"=. c #796652",
"-. c #7D6955",
";. c #756659",
":. c #7F6759",
">. c #7F6C59",
",. c #6D7352",
"<. c #7B7155",
"1. c #836A53",
"2. c #896E56",
"3. c #816D5A",
"4. c #837554",
"5. c #8E7157",
"6. c #84725D",
"7. c #89755F",
"8. c #91755C",
"9. c #837762",
"0. c #8B7661",
"q. c #857C65",
"w. c #8D7963",
"e. c #857E68",
"r. c #8C7F6A",
"t. c #927C65",
"y. c #937F6C",
"u. c #008500",
"i. c #008C00",
"p. c #008A08",
"a. c #009300",
"s. c #009C00",
"d. c #00940A",
"f. c #009612",
"g. c #009E16",
"h. c #00951F",
"j. c #00A400",
"k. c #00AB00",
"l. c #00B300",
"z. c #00BD00",
"x. c #00B70C",
"c. c #00AA1A",
"v. c #00B610",
"b. c #008326",
"n. c #308235",
"m. c #00A222",
"M. c #00B027",
"N. c #00B33D",
"B. c #00C000",
"V. c #00C41D",
"C. c #00B84C",
"Z. c #4F8948",
"A. c #528343",
"S. c #7F825A",
"D. c #84815F",
"F. c #8D8969",
"G. c #948462",
"H. c #9B8563",
"J. c #9E8865",
"K. c #96816B",
"L. c #9A846C",
"P. c #928B68",
"I. c #978171",
"U. c #9E8870",
"Y. c #A0896C",
"T. c #A18971",
/* pixels */
"B.B.B.B.B.B.B.B.B.B.B.B.B.B.B.B.B.z.l.l.l.z.B.B.B.B.B.B.B.B.B.B.B.B.B.B.B.B.B.B.",
"B.B.B.B.B.B.B.B.B.B.B.B.B.B.z.z.z.p.! K 7 j.z.B.B.B.B.B.B.B.B.B.B.B.B.B.B.B.B.B.",
"B.B.B.B.B.B.B.B.B.B.B.B.B.B.B.k.n.4.3. .Q v 9 z.B.B.B.B.B.B.B.B.B.B.B.B.B.B.B.B.",
"B.B.B.B.B.B.B.B.B.B.B.B.B.B.l.S.P.L.L.t.=.H b 5 B.B.B.B.B.B.B.B.B.B.B.B.B.B.B.B.",
"B.B.B.B.B.B.B.B.B.B.B.B.B.l.%.J.J.K.K.w.@.H Z c M.B.B.B.B.B.B.B.B.B.B.B.B.B.B.B.",
"B.B.B.B.B.B.B.B.B.B.B.B.B.a.y.G.w.3.1.@.H F H # n x.z.B.B.B.B.B.B.B.B.B.B.B.B.B.",
"B.z.B.B.B.B.B.B.B.B.B.s...Q @.*. .W H Z m + b o b u - s.z.B.B.B.B.B.B.B.B.B.B.B.",
"B.B.B.B.B.B.B.B.B.B.Z.F.F.@.H H @.0.t.-.H B Z O X X Z u k.B.z.B.B.B.B.B.B.B.B.B.",
"B.B.B.B.B.B.B.z.B.~ q.I.t.=.} { 2.t.K.7.] Z H ' F b v X : l.B.B.B.B.B.B.B.B.B.B.",
"B.B.B.B.B.z.B.B.z.R 6.w.3.| F H { 6.7.=._ ] -.-.] B X v B r u.z.B.B.B.B.B.B.B.B.",
"B.B.B.B.B.l.j.B.k.I H Q ] H Z # H  .=.} F  .6.6. .Z o C G Z B u.z.B.B.B.B.B.B.B.",
"B.B.B.B.l.O.j k.) 8.t.7.0.-.` Z Z F H F A  .6.3.{ F C G ] Q Z c s.z.B.B.B.B.B.B.",
"B.B.B.B.m.f 0 k I.Y.T.T.I.r.=.F D D ` } E Q =.} ] D G G { ] Z X = s.z.B.B.B.B.B.",
"B.B.B.B.z.s.u >.I.T.T.T.I.y.3.` H -.t.y.=.H Q ' F H H N C G Z B O y u.k.a.s.B.B.",
"B.B.B.z.B.5 @ -.K.Y.T.L.0.:.| H *.t.L.L.6.} Z D H @.=.H @ + _ W + o $ s.g M i.B.",
"B.B.z.a.l.u Z ] 7.t.t.6.*.*.' F @.7.H.H.1.| H H ] -.>.| H @  .} _ Z w u.5 g 5 z.",
"B.B.k.a.0 U E Z { -.-.@. .| H H { -.5.;.{ { ` ` -.9.3.| ' H *.*.' F v c 4 s.l.z.",
"B.B.l.a.+.8.t. .H H H W W F Q  .@.| *.| | ` D ] w.t.3.[ G D H ] ' G F Z r i.l.z.",
"B.B.l.( F.H.y.y.} Z Z # F } 7.t.w.@.} | } H D  .3.>.| ` H F D F G H Q T X % s.z.",
"B.B.l.&.G.L.T.L.| D Z Z H =.K.L.K.e.*.] ' ` ` } } ` H } | { H F o C ] ] A r a.l.",
"B.B.s.$.q.T.y.t.' D { -.=.=.w.K.L.K.*.' _ } *.` F Z D { 1.-.] C O + G ' H X a.j.",
"B.B.g._ 3.0.6.*.D ] 5.r.K.7.@.-.0.7.{ ] 0.t.0.=.Z Z D H  .=.@.D O + + Z Z u a.j.",
"B.B.M.N _  .| ' ] 7.H.L.L.t.' ` @.*.' ] t.0.6. .H H H Z F H ] H F Z # + O $ a.j.",
"B.z.z.c + _ T { 6.I.K.I.K.t.{ Z H ' ' ' H }  .] =.3.-.Q Z o Z T H Z O . % a.s.l.",
"B.k.j.4 . + D { 7.L.L.L.w.3.| H ' 3.q.q. .D ' >.w.L.K.@.Q b # ' ' Z O c a.s.s.z.",
"B.h.0 z.3 b Z Q -.0.t.9.3.=.' ] 7.T.T.T.0.{ ` 3.L.I.L.-.[ H + H H Z   $ s.s.z.B.",
"B.z.z.v.j.u.t S *.-.-.-.@.| ' -.T.T.T.L.0.=.H *.t.U.L.6.{ ' # Z F # e a.u.4 l.z.",
"B.B.v.F.4.u.u.R | |  .| ' ' { w.T.T.T.T.7.=.F  .t.I.r.*.' G + # c * 5 a.^ ` > k.",
"B.B.C.r.6.M k.8 ] | } ' ' H *.w.T.T.T.K.6.| D } 9.q.*.' S m X & 5 a.k.s.Y m % k.",
"B.B.V.x +.2 z.k.L ] ' H F H @.6.t.t.w.2.*.` Z W 6.6.[ G m B , u.a.j.z.z.a.u.l.z.",
"B.B.B.z.z.z.z.z.l.8 K X   G | *.-.-.-. .' H + C | { T A O - u.9 +.M a.z.z.z.B.B.",
"B.B.B.z.z.f.u.l.B.z.s.6 = i ` ' ' ] ] ` H Z O O G [ ' n < i.d F.*.b 1 z.d.a l.B.",
"B.B.B.B.z.z ..a.B.c.S.O.u.i.L ' _ W H W Z # O   e w $ u.j.l.l #.N % j.z.q a.z.B.",
"B.B.B.B.B.l.j.z.l.D.L.9./ k.j.8 V D A # + o > < u.j.k.a.4 l.z.N.f.l.z.B.z.B.z.z.",
"B.B.B.B.B.B.B.B.k.o.,.#.p k.B.l.a.= r e ; 1 i.5 5 k.z.a.k.B.z.z.B.B.B.B.B.B.B.B.",
"B.B.B.B.B.B.B.B.z.j.0 5 s.z.B.l.k.z.z.z.z.z.u.G.;.J j.z.z.z.s u.z.B.B.B.B.B.B.B.",
"B.B.B.B.B.B.B.B.B.B.B.z.B.B.l.A.h k.B.B.B.B.X.<.P 5 l.z.B.B.l.z.B.B.B.B.B.B.B.B.",
"B.B.B.B.B.B.B.B.B.B.B.B.B.B.z.k.k.B.l.b.j.B.s.a.k.z.B.B.B.B.B.B.B.B.B.B.B.B.B.B.",
"B.B.B.B.B.B.B.B.B.B.B.B.B.B.B.B.B.B.z.l.z.z.B.B.z.B.B.B.B.B.B.B.B.B.B.B.B.B.B.B.",
"B.B.B.B.B.B.B.B.B.B.B.B.B.B.B.B.B.B.B.B.B.B.B.B.B.B.B.B.B.B.B.B.B.B.B.B.B.B.B.B."
};
