/* XPM */
static char *bee094db31304b9582a7d4df4b4315460orEAkjOpQzCzlya[] = {
/* columns rows colors chars-per-pixel */
"40 40 148 2 ",
"   c #1E3E12",
".  c #3D2B17",
"X  c #372E1D",
"o  c #3B291E",
"O  c #223F15",
"+  c #2B3918",
"@  c #3E321E",
"#  c #123C21",
"$  c #1D3D20",
"%  c #362D20",
"&  c #3D2A21",
"*  c #293621",
"=  c #253B21",
"-  c #432A22",
";  c #4A2E25",
":  c #423226",
">  c #4B3025",
",  c #463822",
"<  c #53352A",
"1  c #59382C",
"2  c #5B3E31",
"3  c #004F06",
"4  c #00460C",
"5  c #005B01",
"6  c #00540E",
"7  c #005E0B",
"8  c #004314",
"9  c #004A11",
"0  c #01441C",
"q  c #004C1B",
"w  c #12461E",
"e  c #005516",
"r  c #005C15",
"t  c #005219",
"y  c #005A19",
"u  c #1E5116",
"i  c #006301",
"p  c #006C02",
"a  c #00630C",
"s  c #006B0B",
"d  c #007301",
"f  c #007B00",
"g  c #00700B",
"h  c #177309",
"j  c #006314",
"k  c #006B15",
"l  c #046519",
"z  c #007315",
"x  c #017917",
"c  c #0B7C17",
"v  c #007618",
"b  c #047A19",
"n  c #0B7D18",
"m  c #137D17",
"M  c #1A7F17",
"N  c #137D18",
"B  c #1A7E19",
"V  c #267E19",
"C  c #014620",
"Z  c #0A4520",
"A  c #134121",
"S  c #354D20",
"D  c #514127",
"F  c #5B4025",
"G  c #5A442D",
"H  c #50502E",
"J  c #5D4B3C",
"K  c #535333",
"L  c #624336",
"P  c #674638",
"I  c #68473A",
"U  c #694A3C",
"Y  c #62513E",
"T  c #755B3E",
"R  c #745546",
"E  c #775949",
"W  c #7A5C4C",
"Q  c #008300",
"!  c #008C00",
"~  c #008F0D",
"^  c #009400",
"/  c #009A00",
"(  c #008613",
")  c #168017",
"_  c #1B8317",
"`  c #148019",
"'  c #1D8118",
"]  c #228317",
"[  c #298717",
"{  c #238519",
"}  c #2A8619",
"|  c #278818",
" . c #2C8919",
".. c #37801C",
"X. c #3C841D",
"o. c #348D1A",
"O. c #398D1C",
"+. c #36911A",
"@. c #3D931B",
"#. c #00A300",
"$. c #00AB00",
"%. c #00B300",
"&. c #00BD00",
"*. c #42961C",
"=. c #46991B",
"-. c #4B9C1D",
";. c #519E1E",
":. c #4FA01D",
">. c #52A11D",
",. c #53A21D",
"<. c #54A01D",
"1. c #54A21D",
"2. c #54A51C",
"3. c #5AA51F",
"4. c #58A81D",
"5. c #5AA81D",
"6. c #5BA91E",
"7. c #5EA81D",
"8. c #5EAA1E",
"9. c #5BB01E",
"0. c #64A810",
"q. c #60AD1D",
"w. c #62AC1E",
"e. c #62AE1E",
"r. c #63AE1F",
"t. c #65B11E",
"y. c #66B11F",
"u. c #67B11F",
"i. c #66B31F",
"p. c #68B31F",
"a. c #6BB31F",
"s. c #69B41E",
"d. c #6EB71F",
"f. c #5CAA20",
"g. c #5DAB20",
"h. c #62AF20",
"j. c #64AF20",
"k. c #65B020",
"l. c #68B321",
"z. c #69B321",
"x. c #6BB322",
"c. c #69B420",
"v. c #6CB520",
"b. c #6EB520",
"n. c #6FB621",
"m. c #6FBA20",
"M. c #71BA22",
"N. c #00C000",
/* pixels */
"N.N.N.N.N.N.N.N.N.N.N.N.N.N.N.N.N.N.&.%.&.N.N.N.N.N.N.N.N.N.N.N.N.N.N.N.N.N.N.N.",
"N.N.N.N.N.N.N.N.N.N.N.N.N.N.&.&.$.! Q g d ! $.&.N.N.N.N.N.N.N.N.N.N.N.N.N.N.N.N.",
"N.N.N.N.N.N.N.N.N.N.N.N.N.&.&.! i V o.| x l 7 ! %.&.&.&.N.N.N.N.N.N.N.N.N.N.N.N.",
"N.N.N.N.N.N.N.N.N.N.N.N.N.&./ ~  .N x ` ' z j j p p ! &.N.N.N.N.N.N.N.N.N.N.N.N.",
"N.N.N.N.N.N.N.N.N.N.N.N.&.! 9.d.y.:.+.v z k z ] N k r Q &.&.N.N.N.N.N.N.N.N.N.N.",
"N.N.N.N.N.N.N.N.N.N.N.N.^ 0.M.n.c.f.f.@.x | ;.=. .b z r p ! &.N.N.N.N.N.N.N.N.N.",
"N.N.N.N.N.N.N.N.N.$./ f ' a.M.z.s.n.f.@.c ;.s.a.2.+._ j t 0 Q &.N.N.N.N.N.N.N.N.",
"N.N.N.N.N.N.N.N.%.g h n } 7.c.z.y.2.;.@.[ ;.v.a.y.7.+.z y q t &.N.N.N.N.N.N.N.N.",
"N.N.N.N.N.N.N.&.f X.*.| ] =.-.f.5.7.,.O._ =.k.k.r.,.{ z r e q p %.N.N.N.N.N.N.N.",
"N.N.N.N.N.N.&.^ s { { z z } @.,.-.{ { n z O.5.r.3.O.c k k j r j p &.N.N.N.N.N.N.",
"N.N.N.N.&.$.f ( k.c.5.O.' n N  .b k z z z _ +.-. .` c  .O.' k j a / N.N.N.N.N.N.",
"N.N.N.N.&.f ..n.m.m.z.y.j.*.k z v O.*.@.} c v n x z o.7.7.=. .c r t &.N.N.N.N.N.",
"N.N.N.N.%.a ..z.n.n.n.a.h.-.z z -.j.r.h.h.-.o.z k m @.z.t.,.,.{ j 9 ! &.N.N.N.N.",
"N.N.&.&.%.a N -.z.k.r.r.7.*.x  .c.z.a.n.c.z.f.O.m  .-.z.l.3.=.m j q t f &.N.N.N.",
"N.N.N.%.d e v O.=.*.-.;.o.{ ' y.m.y.n.m.m.c.y.-.o.*.r.z.h.;.@.x j k k 7 f N.N.N.",
"N.N.&.d { O.) N N ' o.*.-.-.*.y.n.j.z.3.k.7.5.*.[ =.3.3.;.@.] z j z j r t &.N.N.",
"N.&.$.j f.k.-.] c  .,.r.y.y.,.*.r.y.5.5.,.,.*. .m  .*.@.{ M x j k k j r q %.N.N.",
"N.&.f k :.r.f.=.{ -.a.s.r.r.,.O.O.=.=.-.=.O.] c k c [ { c x k j j j j j 0 f &.N.",
"N.&.a l O.2.f.-.o.7.s.r.3.-.o.` ` ' { { } ] c z j k z z z x x z z k k j q 0 ^ N.",
"N.! a z z |  . .{ -.t.7.1.o.v z x x x b B c k k z k x z M [ o. .N z z k j r d &.",
"%.s ' *. .N z ) { [ +.O.) x v } [ _  .O.O.o.o.O.-. .) o.@.-.2.-. .` v z k r p &.",
"#.7 ` @.+.N ` r.y.7.O.N x ` @.@.=.;.2.;.=.=.=.-.5.-.o.:.5.5.f.;.=.O.B v k j i $.",
"#.6 j z k z =.m.m.s.r.O.c  .,.3.8.h.r.7.-.*.@.*.2.5.-.=.3.f.;.=.@.{ z z k j i %.",
"&.i j k k b @.k.m.7.5.=. .:.j.z.s.y.r.a.a.5.=.@.2.2.:.O.3.f.=.O.{ z z z j q p %.",
"&./ s c v z  .,.y.5.:.+.) 2.n.c.y.y.y.r.6.2.@.+.*. .' m =.=. .x z k z k e q ! &.",
"N.&.f v z z c o.-.@.O._ b @.h.k.:.:.5.,.@.[ ` b ` b z k x ' z z k j k r e p / &.",
"N.&.! p z r l z b ` ) n z z -.:.| ' o.{ ' ` z k k j k k k z z k l e j t 0 i / %.",
"N.N.&.! i e w k k k z z z k N o.{ z z b z z j j j k k j j z j r q q q 0 5 ^ / %.",
"N.N.N.N.%.^ i r j k j j k j l z c z z z l l e y k k j r j j r q A A Z f ^ / / &.",
"N.N.N.N.&./ / i 8 t q 9 r r C e j k k j t Z q t r j e q r e 4 6 5 5 d / / / #.N.",
"N.N.N.N.&.%./ ^ d i d p 6 9 8 # q y r e q A 0 y r e Z 8 8 t p ^ ^ / / / / / %.&.",
"N.N.N.N.&.&./ / / / ^ / ! p 8 % = $ $ + % % * # # u 8 d f ^ ^ / / / / / / #.&.N.",
"N.N.N.N.N.&.$./ / / / ^ / i . ; ; - - - - & - & & & X 5 / / / / / / / / #.&.&.N.",
"N.N.N.N.N.N.%./ / / / / / f H W 2 < 2 > < - ; - - ; o 3 ^ / / / / / / %.&.N.N.N.",
"N.N.N.N.N.N.&.$./ / / / ^ u J F - U R I P ; 1 L - : @ 4 ^ / / / / / / &.N.N.N.N.",
"N.N.N.N.N.N.N.&.$.#./ / / ! d 5 G W L I E ; < T 2   Q Q ^ / / / #.$.&.N.N.N.N.N.",
"N.N.N.N.N.N.N.N.N.N.%.$.#./ / d K S 5 D Y O 4 , ; + ! / / / / $.&.N.N.N.N.N.N.N.",
"N.N.N.N.N.N.N.N.N.N.&.N.%.#./ ^ ^ ^ / i i ! ^ f i Q ^ / / #.%.N.N.N.N.N.N.N.N.N.",
"N.N.N.N.N.N.N.N.N.N.N.N.N.&.%.#.#.%.#./ / / / #.#.$.&.&.N.N.N.N.N.N.N.N.N.N.N.N.",
"N.N.N.N.N.N.N.N.N.N.N.N.N.N.N.N.N.N.&.&.&.N.N.&.&.N.&.N.N.N.N.N.N.N.N.N.N.N.N.N."
};
